# AST/ASF file generated using VICON BodyLanguage
# -----------------------------------------------
:version 1.10
:name VICON
:units
  mass 1.0
  length 0.45
  angle deg
:documentation
   .ast/.asf automatically generated from VICON data using
   VICON BodyBuilder and BodyLanguage model FoxedUp or BRILLIANT.MOD
:root
   order TX TY TZ RX RY RZ
   axis XYZ
   position 0 0 0  
   orientation 0 0 0 
:bonedata
  begin
     id 1 
     name lhipjoint
     direction 0.722297 -0.617336 0.311742 
     length 2.6635 
     axis 0 0 0  XYZ
  end
  begin
     id 2 
     name lfemur
     direction 0.34202 -0.939693 0  
     length 7.39349  
     axis 0 0 20  XYZ
    dof rx ry rz
    limits (-160.0 20.0)
           (-70.0 70.0)
           (-60.0 70.0)
  end
  begin
     id 3 
     name ltibia
     direction 0.34202 -0.939693 0   
     length 7.36294   
     axis 0 0 20   XYZ
    dof rx
    limits (-10.0 170.0)
  end
  begin
     id 4 
     name lfoot
     direction 0.104879 -0.288152 0.951824   
     length 2.16981   
     axis -90 7.62852e-016 20   XYZ
    dof rx rz
    limits (-45.0 90.0)
           (-70.0 20.0)
  end
  begin
     id 5 
     name ltoes
     direction 1.53586e-011 -4.21895e-011 1   
     length 1.08218   
     axis -90 7.62852e-016 20   XYZ
    dof rx
    limits (-90.0 20.0)
  end
  begin
     id 6 
     name rhipjoint
     direction -0.75102 -0.589393 0.297631   
     length 2.78977  
     axis 0 0 0  XYZ 
  end
  begin
     id 7 
     name rfemur
     direction -0.34202 -0.939693 0   
     length 7.46076   
     axis 0 0 -20   XYZ
    dof rx ry rz
    limits (-160.0 20.0)
           (-70.0 70.0)
           (-70.0 60.0)
  end
  begin
     id 8 
     name rtibia
     direction -0.34202 -0.939693 0   
     length 7.31726   
     axis 0 0 -20   XYZ
    dof rx
    limits (-10.0 170.0)
 end
 begin
     id 9 
     name rfoot
     direction -0.107991 -0.296704 0.948844   
     length 2.09388  
     axis -90 -7.62852e-016 -20   XYZ
    dof rx rz
    limits (-45.0 90.0)
           (-20.0 70.0)
  end
  begin
     id 10 
     name rtoes
     direction -1.53559e-011 -4.21911e-011 1   
     length 1.04433   
     axis -90 -7.62852e-016 -20   XYZ
    dof rx
    limits (-90.0 20.0)
  end
  begin
     id 11 
     name lowerback
     direction 0.0165164 0.98272 0.184358   
     length 1.71896   
     axis 0 0 0   XYZ
    dof rx ry rz
    limits (-20.0 45.0)
           (-30.0 30.0)
           (-30.0 30.0)
  end
  begin
     id 12 
     name upperback
     direction -0.00887249 0.992297 0.123566   
     length 1.71504   
     axis 0 0 0   XYZ
    dof rx ry rz
    limits (-20.0 45.0)
           (-30.0 30.0)
           (-30.0 30.0)
  end
  begin
     id 13 
     name thorax
     direction -0.0157026 0.998908 0.0440032   
     length 1.77022   
     axis 0 0 0   XYZ
    dof rx ry rz
    limits (-20.0 45.0)
           (-30.0 30.0)
           (-30.0 30.0)
  end
  begin
     id 14 
     name lowerneck
     direction -0.0238856 0.998137 0.0561411   
     length 1.89341   
     axis 0 0 0   XYZ
    dof rx ry rz
    limits (-20.0 45.0)
           (-30.0 30.0)
           (-30.0 30.0)
  end
  begin
     id 15 
     name upperneck
     direction 0.0276574 0.952253 -0.304056   
     length 1.86999   
     axis 0 0 0   XYZ
    dof rx ry rz
    limits (-20.0 45.0)
           (-30.0 30.0)
           (-30.0 30.0)
  end
  begin
     id 16
     name head
     direction 0.00800083 0.994258 -0.106712  
     length 1.91492  
     axis 0 0 0   XYZ
    dof rx ry rz
    limits (-20.0 45.0)
           (-30.0 30.0)
           (-30.0 30.0)
  end
  begin
     id 17 
     name lclavicle
     direction 0.97203 0.225407 0.06595  
     length 3.34889  
     axis 0 0 0   XYZ
    dof ry rz
    limits (-20.0 10.0)
           (0.0 20.0)
  end
  begin
     id 18 
     name lhumerus
     direction 1 -4.48973e-011 2.20267e-027   
     length 4.85645   
     axis 180 -30 -90   XYZ
    dof rx ry rz
    limits (-60.0 90.0)
           (-90.0 90.0)
           (-90.0 90.0)
  end
  begin
     id 19
     name lradius
     direction 1 -4.4897e-011 4.60472e-027   
     length 2.79874   
     axis 180 -30 -90   XYZ
    dof rx
    limits (-10.0 170.0)
  end
  begin
     id 20
     name lwrist
     direction 1 -4.48952e-011 1.14928e-026   
     length 1.39937   
     axis -6.29373e-015 90 90   XYZ
    dof ry
    limits (-180.0 0.0)
 end
  begin
     id 21 
     name lhand
     direction 1 -4.48967e-011 2.29886e-026   
     length 0.573398   
     axis -1.46689e-014 90 90   XYZ
    dof rx rz
    limits (-90.0 90.0)
           (-45.0 45.0)
  end
  begin
     id 22 
     name lfingers
     direction 1 -4.48955e-011 4.59726e-026   
     length 0.462289   
     axis -2.93383e-014 90 90   XYZ
    dof rx
    limits (0.0 90.0)
  end
  begin
     id 23
     name lthumb
     direction 0.707107 -6.34866e-011 0.707107   
     length 0.663757   
     axis -90 45 5.69224e-014   XYZ
    dof rx rz
    limits (-45.0 45.0)
           (-45.0 45.0)
  end
  begin
     id 24 
     name rclavicle
     direction -0.981571 0.157346 0.108443   
     length 3.35257  
     axis 0 0 0   XYZ 
    dof ry rz
    limits (-10.0 20.0)
           (-20.0 0.0)
  end
  begin
     id 25 
     name rhumerus
     direction -1 -4.48967e-011 8.58308e-029  
     length 4.67018   
     axis 180 30 90   XYZ
    dof rx ry rz
    limits (-90.0 60.0)
           (-90.0 90.0)
           (-90.0 90.0)
  end
  begin
     id 26 
     name rradius
     direction -1 -4.48958e-011 4.52548e-027   
     length 2.65534   
     axis 180 30 90   XYZ
    dof rx
    limits (-10.0 170.0)
  end
  begin
     id 27 
     name rwrist
     direction -1 -4.48977e-011 1.14952e-026   
     length 1.32767   
     axis -6.29373e-015 -90 -90   XYZ
    dof ry
    limits (-180.0 0.0)
  end
  begin
     id 28
     name rhand
     direction -1 -4.48924e-011 2.29804e-026   
     length 0.594069   
     axis -1.46689e-014 -90 -90   XYZ
    dof rx rz
    limits (-90.0 90.0)
           (-45.0 45.0)
  end
  begin
     id 29
     name rfingers
     direction -1 -4.48998e-011 4.59888e-026   
     length 0.478954   
     axis -2.93383e-014 -90 -90   XYZ
    dof rx
    limits (0.0 90.0)
  end
  begin
     id 30
     name rthumb
     direction -0.707107 -6.34933e-011 0.707107   
     length 0.687685   
     axis -90 -45 -5.69224e-014   XYZ
    dof rx rz
    limits (-45.0 45.0)
           (-45.0 45.0)
  end
:hierarchy
  begin
    root lhipjoint rhipjoint lowerback
    lhipjoint lfemur
    lfemur ltibia
    ltibia lfoot
    lfoot ltoes
    rhipjoint rfemur
    rfemur rtibia
    rtibia rfoot
    rfoot rtoes
    lowerback upperback
    upperback thorax
    thorax lowerneck lclavicle rclavicle
    lowerneck upperneck
    upperneck head
    lclavicle lhumerus
    lhumerus lradius
    lradius lwrist
    lwrist lhand lthumb
    lhand lfingers
    rclavicle rhumerus
    rhumerus rradius
    rradius rwrist
    rwrist rhand rthumb
    rhand rfingers
  end

#!OML:ASF E:\pregnant2\Project 1\Capture day 1\Session 1\pregnant2.ASF
:FULLY-SPECIFIED
:DEGREES
102
root 5.27964 16.6386 37.9507 -152.198 1.47324 177.745
lowerback -5.51141 -2.62342 -3.623
upperback -16.5141 -0.33711 1.41999
thorax -15.062 1.82377 3.25188
lowerneck -10.1382 -6.8139 -6.9266
upperneck 43.3026 -0.851659 -2.42628
head 18.0193 0.444445 0.687783
rclavicle -4.96962e-015 2.10712e-014
rhumerus -49.2582 14.368 -96.8498
rradius 35.885
rwrist 9.07077
rhand -9.00033 -15.7059
rfingers 7.12502
rthumb 16.9461 -44.9866
lclavicle -4.96962e-015 2.10712e-014
lhumerus -56.7896 11.4549 74.1265
lradius 30.325
lwrist -6.57474
lhand -4.62417 26.9976
lfingers 7.12502
lthumb 21.1545 55.8635
rfemur -35.2947 13.2806 19.0278
rtibia 34.2333
rfoot -23.7678 -15.1684
rtoes -0.867329
lfemur -57.474 -9.3318 -14.6966
ltibia 28.2897
lfoot -1.82689 17.5904
ltoes -12.8847
103
root 5.26332 16.6551 37.8287 -152.321 1.62293 177.79
lowerback -5.51913 -2.55818 -3.53389
upperback -16.4893 -0.256334 1.40644
thorax -15.0335 1.84301 3.18319
lowerneck -10.1487 -6.79838 -6.86706
upperneck 43.3897 -0.777934 -2.47652
head 18.0721 0.488244 0.670942
rclavicle -1.59028e-015 1.98785e-015
rhumerus -49.4542 14.781 -97.206
rradius 36.2428
rwrist 8.97117
rhand -8.84676 -15.5541
rfingers 7.12502
rthumb 17.0939 -44.8221
lclavicle -1.59028e-015 1.98785e-015
lhumerus -56.9609 11.5034 73.9536
lradius 30.376
lwrist -6.41457
lhand -4.95341 27.1489
lfingers 7.12502
lthumb 20.8382 56.0498
rfemur -34.2999 13.4135 19.0558
rtibia 33.3998
rfoot -23.6091 -15.2013
rtoes -1.2141
lfemur -56.8943 -10.0907 -13.6366
ltibia 25.7667
lfoot -0.921053 18.1467
ltoes -12.729
104
root 5.24648 16.6689 37.706 -152.438 1.77194 177.83
lowerback -5.52624 -2.5005 -3.45444
upperback -16.4684 -0.18508 1.39408
thorax -15.0093 1.85983 3.1217
lowerneck -10.1601 -6.77962 -6.80362
upperneck 43.4658 -0.708265 -2.52279
head 18.1183 0.530049 0.653958
rclavicle -6.55989e-015 1.55052e-014
rhumerus -49.6391 15.1747 -97.5318
rradius 36.5713
rwrist 8.92193
rhand -8.69402 -15.3696
rfingers 7.12502
rthumb 17.241 -44.6248
lclavicle -6.55989e-015 1.55052e-014
lhumerus -57.1157 11.5416 73.7953
lradius 30.4026
lwrist -6.21813
lhand -5.33031 27.2803
lfingers 7.12502
lthumb 20.476 56.2206
rfemur -33.3455 13.5314 19.0815
rtibia 32.6408
rfoot -23.4765 -15.2241
rtoes -1.59388
lfemur -56.3355 -10.8529 -12.5923
ltibia 23.4651
lfoot -0.128366 18.6942
ltoes -12.5802
105
root 5.22898 16.679 37.5826 -152.537 1.9089 177.856
lowerback -5.54089 -2.45492 -3.39098
upperback -16.4527 -0.128249 1.38292
thorax -14.9854 1.87322 3.07116
lowerneck -10.1838 -6.75755 -6.72572
upperneck 43.5415 -0.637912 -2.57169
head 18.1672 0.573308 0.632973
rclavicle -2.28602e-015 1.59028e-015
rhumerus -49.8055 15.5403 -97.818
rradius 36.8672
rwrist 8.91848
rhand -8.54202 -15.1676
rfingers 7.12502
rthumb 17.3872 -44.4099
lclavicle -2.28602e-015 1.59028e-015
lhumerus -57.2511 11.5651 73.6588
lradius 30.4106
lwrist -6.0139
lhand -5.69841 27.4318
lfingers 7.12502
lthumb 20.1223 56.4097
rfemur -32.4485 13.6434 19.0944
rtibia 31.9752
rfoot -23.371 -15.26
rtoes -2.02013
lfemur -55.8227 -11.5866 -11.628
ltibia 21.4382
lfoot 0.567908 19.1441
ltoes -12.6184
106
root 5.21117 16.6844 37.4593 -152.591 2.02928 177.866
lowerback -5.57656 -2.42887 -3.34261
upperback -16.4538 -0.0906069 1.37245
thorax -14.9678 1.88326 3.03014
lowerneck -10.2209 -6.73289 -6.6411
upperneck 43.6177 -0.569509 -2.61624
head 18.2199 0.616306 0.612095
rclavicle 1.14301e-015 5.56597e-015
rhumerus -49.9625 15.8678 -98.0609
rradius 37.1459
rwrist 8.95654
rhand -8.37977 -14.9395
rfingers 7.12502
rthumb 17.5434 -44.1679
lclavicle 1.14301e-015 5.56597e-015
lhumerus -57.3644 11.5646 73.5499
lradius 30.4074
lwrist -5.79812
lhand -6.06694 27.5665
lfingers 7.12502
lthumb 19.768 56.5812
rfemur -31.6606 13.737 19.0891
rtibia 31.4345
rfoot -23.3002 -15.3008
rtoes -2.49171
lfemur -55.401 -12.2306 -10.8206
ltibia 19.7351
lfoot 1.14863 19.4452
ltoes -12.8449
